<?xml version="1.0" encoding="UTF-8"?>
<svg width="36" height="36" viewBox="0 0 36 36" fill="none" xmlns="http://www.w3.org/2000/svg">
  <path d="M32 18C32 22 28 26 24 26H12C8 26 4 22 4 18C4 14 8 10 12 10H24C28 10 32 14 32 18Z" fill="currentColor"/>
  <path d="M24 12C26 12 28 14 28 16C28 18 26 20 24 20C22 20 20 18 20 16C20 14 22 12 24 12Z" fill="currentColor"/>
  <circle cx="16" cy="18" r="2" fill="white"/>
  <rect x="18" y="8" width="8" height="4" rx="2" fill="currentColor"/>
  <rect x="8" y="22" width="4" height="6" rx="2" fill="currentColor"/>
  <rect x="24" y="22" width="4" height="6" rx="2" fill="currentColor"/>
</svg>